<?xml version="1.0" encoding="UTF-8"?><svg xmlns="http://www.w3.org/2000/svg" xmlns:xlink="http://www.w3.org/1999/xlink" height="101.8" preserveAspectRatio="xMidYMid meet" version="1.0" viewBox="-0.0 0.0 124.0 101.8" width="124.0" zoomAndPan="magnify"><g><g><g><g><path d="M59.83,9.82c4.05,0,7.34,3.28,7.34,7.34c0,4.05-3.29,7.33-7.34,7.33c-4.06,0-7.34-3.28-7.34-7.33 C52.49,13.1,55.77,9.82,59.83,9.82z" fill="#f97732"/></g><g><path d="M81.3,53.29v10.72c-2.16,0-4.26,0.28-6.28,0.83c-2.07-1.57-4.13-3.04-6.16-4.38 c-1.34-0.89-2.66-1.72-3.98-2.5C69.85,54.97,75.42,53.29,81.3,53.29z" fill="#349370"/></g><g><path d="M63.92,66.54c0.79,0.82,1.62,1.66,2.49,2.49c-8.95,6.53-14.97,18.76-14.97,32.77h-8.46 c0-3.3,0.26-6.53,0.76-9.65c1.89-11.86,7.2-22.15,14.57-29.17c0.01,0,0.01,0,0.02-0.01c1.13-0.36,1.83-0.71,1.83-0.71 C61.29,63.67,62.55,65.1,63.92,66.54z" fill="#349370"/></g><g><path d="M81.3,64.01v5.88c-2.11-1.78-4.2-3.47-6.28-5.05C77.04,64.29,79.14,64.01,81.3,64.01z" fill="#96b443"/></g><g><path d="M66.41,69.03c2.02,1.96,4.25,3.93,6.64,5.92c-8.49,4.18-14.51,14.63-14.51,26.85h-7.1 C51.44,87.79,57.46,75.56,66.41,69.03z" fill="#96b443"/></g><g><path d="M81.3,81.42v1.43c-8.27,0-14.98,8.48-14.98,18.95h-7.78c0-12.22,6.02-22.67,14.51-26.85 c2.57,2.14,5.33,4.3,8.25,6.46V81.42z" fill="#ffc05a"/></g><g><path d="M81.3,82.85v9.82c-3.99,0-7.22,4.09-7.22,9.13h-7.76C66.32,91.33,73.03,82.85,81.3,82.85z" fill="#f97732"/></g><g><path d="M124,18.19v35.3c0,10.05-8.15,18.2-18.2,18.2h-1.77c-10.05,0-18.19-8.15-18.19-18.2v-35.3 C85.84,8.14,93.98,0,104.03,0h1.77C115.85,0,124,8.14,124,18.19z M119.57,30.93c0.62-0.6,1.31-1.49,1.22-2.47 c-0.09-0.87-0.67-1.36-1.24-1.64c-0.65-0.31-1.19-0.82-1.44-1.5c-0.34-0.94-1-2.09-2.18-1.98c-0.96,0.09-1.38,0.75-1.56,1.4 c-0.22,0.78-0.89,1.36-1.7,1.48c-1.31,0.19-2.98,0.65-3.18,1.78c-0.14,0.8,0.39,1.31,1.05,1.63c0.79,0.38,1.16,1.31,0.86,2.15 c-0.17,0.45-0.21,0.93,0.04,1.36c0.73,1.27,2.36,0.69,3.62,1.08c1.25,0.39,2.18,2.16,3.46,1.71c1.29-0.44,1.13-1.79,0.61-3.16 C118.87,32.13,119.07,31.41,119.57,30.93z M118.88,45.37c0.8-0.56,1.61-1.33,1.38-2.12c-0.23-0.76-0.99-0.96-1.68-0.99 c-0.56-0.02-0.98-0.49-0.96-1.05c0.02-0.64-0.15-1.38-0.93-1.8c-0.39-0.21-0.74-0.26-1.04-0.24c-0.81,0.08-1.58-0.38-1.98-1.08 c-0.3-0.51-0.75-0.9-1.43-0.82c-0.81,0.09-1.19,0.71-1.36,1.37c-0.22,0.84-0.85,1.54-1.71,1.69c-0.6,0.1-1.19,0.37-1.38,1.02 c-0.21,0.66,0.17,1.23,0.65,1.68c0.64,0.59,0.84,1.53,0.42,2.29c-0.52,0.91-0.86,2.07,0.08,2.84c0.79,0.66,1.69,0.51,2.43,0.16 c1-0.48,2.19-0.37,3.03,0.36c0.97,0.84,2.23,1.63,3.11,1.11c0.83-0.5,0.81-1.42,0.6-2.22C117.88,46.74,118.17,45.86,118.88,45.37 z M119.84,17.08c1.34-2.08-1.62-3.86-2.07-4.6c-1.18-1.91-0.15-4.47-2.63-5.6c-2.48-1.13-3.53,2.14-4.93,1.98 c-1.39-0.15-2.49-1.91-4-1.05c-1.52,0.85-0.51,2.69-1.04,4.13c-0.52,1.43-3.08,1.87-2.37,3.63c0.71,1.75,2.86,0.52,4.31,1.95 c0.91,0.89,0.23,2.06,1.32,3.75c1.08,1.68,4.02,1.04,5.03-0.29c1.01-1.34,0.54-2.4,1.73-3 C116.26,17.43,118.51,19.17,119.84,17.08z M117.14,62.01c2.2-2.91,2.25-6.58,0.11-8.19c-2.13-1.61-5.64-0.55-7.84,2.37 c-2.2,2.92-2.25,6.58-0.11,8.19C111.43,65.99,114.94,64.93,117.14,62.01z M105.63,37.8c1.5-1.74-1.87-5.24-2.43-6.9 c-0.55-1.67,1.6-6.28-0.89-7.47c-2.48-1.18-3.26,1.67-5.25,1.65c-2-0.03-4.17-1.21-5.47,0.74c-1.31,1.95,1.49,4.94,0.76,7.37 c-0.74,2.43-3.37,5.65-1.09,7.2c2.27,1.56,5.63-2.19,8.14-2.65C101.92,37.28,104.25,39.4,105.63,37.8z M103.78,57.66 c2.18-0.42,2.74-3.7,1.78-5.28c-0.96-1.59-2.24-1.55-2.37-3.01c-0.12-1.33,2.59-2.92,1.01-5.15c-1.58-2.23-4.64,0.08-5.58,0.24 c-2.45,0.41-4.64-1.7-6.83,0.38c-2.18,2.08,0.74,4.5,0,5.87c-0.73,1.37-2.99,1.77-2.74,3.67c0.25,1.91,2.56,1.64,3.82,2.77 c1.25,1.13,0.65,3.94,2.74,3.93c2.09,0,1.72-2.72,3.78-3.62C100.68,56.9,101.61,58.08,103.78,57.66z M99.53,18.25 c0.37-0.91,0-1.66-0.55-2.22c-0.71-0.73-0.74-1.9-0.07-2.67c0.72-0.82,1.24-1.83,0.53-2.62c-0.94-1.04-2.41-0.3-3.34,0.37 c-0.54,0.38-1.23,0.47-1.86,0.24c-0.84-0.31-2.04-0.55-2.85,0.2c-0.63,0.58-0.67,1.34-0.54,1.98c0.15,0.72-0.04,1.5-0.59,2 c-0.37,0.34-0.68,0.82-0.6,1.46c0.08,0.64,0.44,1.01,0.83,1.22c0.59,0.33,0.92,0.97,0.99,1.64c0.08,0.75,0.4,1.57,1.42,1.77 c1,0.19,1.68-0.49,2.09-1.2c0.42-0.7,1.19-1.12,1.99-1.01C97.92,19.53,99.07,19.41,99.53,18.25z" fill="#c2e6f9"/></g><g><path d="M120.79,28.46c0.09,0.98-0.6,1.87-1.22,2.47c-0.5,0.48-0.7,1.2-0.44,1.84 c0.52,1.37,0.68,2.72-0.61,3.16c-1.28,0.45-2.21-1.32-3.46-1.71c-1.26-0.39-2.89,0.19-3.62-1.08c-0.25-0.43-0.21-0.91-0.04-1.36 c0.3-0.84-0.07-1.77-0.86-2.15c-0.66-0.32-1.19-0.83-1.05-1.63c0.2-1.13,1.87-1.59,3.18-1.78c0.81-0.12,1.48-0.7,1.7-1.48 c0.18-0.65,0.6-1.31,1.56-1.4c1.18-0.11,1.84,1.04,2.18,1.98c0.25,0.68,0.79,1.19,1.44,1.5C120.12,27.1,120.7,27.59,120.79,28.46 z" fill="#ffc05a"/></g><g><path d="M120.26,43.25c0.23,0.79-0.58,1.56-1.38,2.12c-0.71,0.49-1,1.37-0.77,2.2 c0.21,0.8,0.23,1.72-0.6,2.22c-0.88,0.52-2.14-0.27-3.11-1.11c-0.84-0.73-2.03-0.84-3.03-0.36c-0.74,0.35-1.64,0.5-2.43-0.16 c-0.94-0.77-0.6-1.93-0.08-2.84c0.42-0.76,0.22-1.7-0.42-2.29c-0.48-0.45-0.86-1.02-0.65-1.68c0.19-0.65,0.78-0.92,1.38-1.02 c0.86-0.15,1.49-0.85,1.71-1.69c0.17-0.66,0.55-1.28,1.36-1.37c0.68-0.08,1.13,0.31,1.43,0.82c0.4,0.7,1.17,1.16,1.98,1.08 c0.3-0.02,0.65,0.03,1.04,0.24c0.78,0.42,0.95,1.16,0.93,1.8c-0.02,0.56,0.4,1.03,0.96,1.05 C119.27,42.29,120.03,42.49,120.26,43.25z" fill="#115e98"/></g><g><path d="M117.77,12.48c0.45,0.74,3.41,2.52,2.07,4.6c-1.33,2.09-3.58,0.35-4.65,0.9 c-1.19,0.6-0.72,1.66-1.73,3c-1.01,1.33-3.95,1.97-5.03,0.29c-1.09-1.69-0.41-2.86-1.32-3.75c-1.45-1.43-3.6-0.2-4.31-1.95 c-0.71-1.76,1.85-2.2,2.37-3.63c0.53-1.44-0.48-3.28,1.04-4.13c1.51-0.86,2.61,0.9,4,1.05c1.4,0.16,2.45-3.11,4.93-1.98 C117.62,8.01,116.59,10.57,117.77,12.48z" fill="#ae2c36"/></g><g><path d="M117.25,53.82c2.14,1.61,2.09,5.28-0.11,8.19c-2.2,2.92-5.71,3.98-7.84,2.37 c-2.14-1.61-2.09-5.27,0.11-8.19C111.61,53.27,115.12,52.21,117.25,53.82z" fill="#ed9fc5"/></g><g><path d="M103.2,30.9c0.56,1.66,3.93,5.16,2.43,6.9c-1.38,1.6-3.71-0.52-6.23-0.06 c-2.51,0.46-5.87,4.21-8.14,2.65c-2.28-1.55,0.35-4.77,1.09-7.2c0.73-2.43-2.07-5.42-0.76-7.37c1.3-1.95,3.47-0.77,5.47-0.74 c1.99,0.02,2.77-2.83,5.25-1.65C104.8,24.62,102.65,29.23,103.2,30.9z" fill="#96b443"/></g><g><path d="M105.56,52.38c0.96,1.58,0.4,4.86-1.78,5.28c-2.17,0.42-3.1-0.76-4.39-0.2 c-2.06,0.9-1.69,3.62-3.78,3.62c-2.09,0.01-1.49-2.8-2.74-3.93c-1.26-1.13-3.57-0.86-3.82-2.77c-0.25-1.9,2.01-2.3,2.74-3.67 c0.74-1.37-2.18-3.79,0-5.87c2.19-2.08,4.38,0.03,6.83-0.38c0.94-0.16,4-2.47,5.58-0.24c1.58,2.23-1.13,3.82-1.01,5.15 C103.32,50.83,104.6,50.79,105.56,52.38z" fill="#349370"/></g><g><path d="M104.74,92.75c0.67,0.72,0.7,1.83,0.08,2.59c-0.64,0.78-1.76,0.95-2.61,0.41 c-7.43-4.8-14.54-9.59-20.91-14.33v-0.01c-2.92-2.16-5.68-4.32-8.25-6.46c-2.39-1.99-4.62-3.96-6.64-5.92 c-0.87-0.83-1.7-1.67-2.49-2.49c0.83-2.71,2.48-4.74,4.94-6.08c2.03,1.34,4.09,2.81,6.16,4.38c2.08,1.58,4.17,3.27,6.28,5.05 C89.01,76.41,96.89,84.22,104.74,92.75z" fill="#fcbd72"/></g><g><path d="M98.98,16.03c0.55,0.56,0.92,1.31,0.55,2.22c-0.46,1.16-1.61,1.28-2.55,1.16 c-0.8-0.11-1.57,0.31-1.99,1.01c-0.41,0.71-1.09,1.39-2.09,1.2c-1.02-0.2-1.34-1.02-1.42-1.77c-0.07-0.67-0.4-1.31-0.99-1.64 c-0.39-0.21-0.75-0.58-0.83-1.22c-0.08-0.64,0.23-1.12,0.6-1.46c0.55-0.5,0.74-1.28,0.59-2c-0.13-0.64-0.09-1.4,0.54-1.98 c0.81-0.75,2.01-0.51,2.85-0.2c0.63,0.23,1.32,0.14,1.86-0.24c0.93-0.67,2.4-1.41,3.34-0.37c0.71,0.79,0.19,1.8-0.53,2.62 C98.24,14.13,98.27,15.3,98.98,16.03z" fill="#f97732"/></g><g><path d="M81.3,92.67v9.13h-7.22C74.08,96.76,77.31,92.67,81.3,92.67z" fill="#ae2c36"/></g><g><path d="M81.3,44.55v8.74c-5.88,0-11.45,1.68-16.42,4.67c-0.25-0.15-0.5-0.3-0.75-0.44 c0-0.09-0.01-1.91-0.88-3.71l3.82-1.18c1.65-0.5,2.66-2.11,2.48-3.82c-0.17-1.62,0.01-3.57,1.46-4.84 C73.87,41.45,81.3,44.55,81.3,44.55z" fill="#115e98"/></g><g><path d="M27.97,22.79c-1.65-0.05-3.28-0.02-4.77,0.06c-2.57,0.13-4.85-1.5-5.77-3.91 c-0.5-1.32-1.75-2.55-4.51-3.02C5.76,14.68,0,19.95,0,19.95V1.52h81.3v43.03c0,0-7.43-3.1-10.29-0.58 c-1.45,1.27-1.63,3.22-1.46,4.84c0.18,1.71-0.83,3.32-2.48,3.82l-3.82,1.18c-0.55-1.14-1.44-2.28-2.9-2.97 c-1.61-0.76-3.03-0.78-4.37-0.64c2.01-1.35,3.67-3.26,4.7-5.98c3.01-8.03-6.75-9.6-15.09-9.56c-3.3,0.02-5.77-2.71-5.84-6.01 c-0.03-1-0.43-2.05-1.42-3.06C36.36,23.59,32.14,22.91,27.97,22.79z M67.17,17.16c0-4.06-3.29-7.34-7.34-7.34 c-4.06,0-7.34,3.28-7.34,7.34c0,4.05,3.28,7.33,7.34,7.33C63.88,24.49,67.17,21.21,67.17,17.16z" fill="#fbe2ae"/></g><g><path d="M64.88,57.96c1.32,0.78,2.64,1.61,3.98,2.5c-2.46,1.34-4.11,3.37-4.94,6.08 c-1.37-1.44-2.63-2.87-3.76-4.28c0.17-0.65,0.4-1.25,0.72-1.8c0.34-0.65,0.8-1.22,1.35-1.7c0.54-0.5,1.17-0.91,1.9-1.24 C64.38,57.66,64.63,57.81,64.88,57.96z" fill="#d2d2d1"/></g><g><path d="M63.25,53.81c0.87,1.8,0.88,3.62,0.88,3.71c-0.73,0.33-1.36,0.74-1.9,1.24l-0.01-0.01 c-1.8-3.28-4.78-4.92-8.94-4.94c0.11-0.38,0.16-0.77,0.14-1.18l-0.09-2.11c0.87-0.06,1.74-0.23,2.64-0.32h0.01 c1.34-0.14,2.76-0.12,4.37,0.64C61.81,51.53,62.7,52.67,63.25,53.81z" fill="#c19b7a"/></g><g><path d="M62.22,58.75l0.01,0.01c-0.55,0.48-1.01,1.05-1.35,1.7h-0.01c-4.23,0.34-8.09-0.63-11.64-2.72 c0.43-0.62,1.04-1.11,1.76-1.4c1.14-0.44,1.98-1.39,2.29-2.53C57.44,53.83,60.42,55.47,62.22,58.75z" fill="#d1af8f"/></g><g><path d="M27.97,22.79c4.17,0.12,8.39,0.8,10.36,2.8c0.99,1.01,1.39,2.06,1.42,3.06 c0.07,3.3,2.54,6.03,5.84,6.01c8.34-0.04,18.1,1.53,15.09,9.56c-1.03,2.72-2.69,4.63-4.7,5.98h-0.01 c-0.9,0.09-1.77,0.26-2.64,0.32c-0.9,0.06-1.81,0-2.76-0.37c-3.23-1.26-5.11-7.59-5.11-7.59s-1.74,5.26-1.72,10.42 c-2.18-0.07-4.19-0.33-5.76-0.61c-1.95-0.34-3.93,0.32-5.29,1.77c-2.05,2.16-5.51,4.96-9.68,4.96c-3.13,0-5.58-1.13-7.31-2.35 c-1.99-1.41-4.63-1.51-6.65-0.15c-1.55,1.04-3.29,1.98-4.55,1.98c-2.86,0-4.5-2.27-4.5-2.27V19.95c0,0,5.76-5.27,12.92-4.03 c2.76,0.47,4.01,1.7,4.51,3.02c0.92,2.41,3.2,4.04,5.77,3.91C24.69,22.77,26.32,22.74,27.97,22.79z M55.2,43.17 c1.12-0.7,1.46-2.17,0.77-3.28c-0.7-1.12-2.17-1.47-3.29-0.78c-1.11,0.7-2.93,2.73-3.23,4.81C52.28,42.9,53.21,44.4,55.2,43.17z" fill="#ffc05a"/></g><g><path d="M60.87,60.46h0.01c-0.32,0.55-0.55,1.15-0.72,1.8c0,0-0.7,0.35-1.83,0.71 c-0.01,0.01-0.01,0.01-0.02,0.01c-2.35,0.73-6.53,1.46-10.34-0.84v-0.01l0.67-3.05c0.11-0.49,0.31-0.94,0.59-1.34 C52.78,59.83,56.64,60.8,60.87,60.46z" fill="#c19b7a"/></g><g><path d="M55.97,39.89c0.69,1.11,0.35,2.58-0.77,3.28c-1.99,1.23-2.92-0.27-5.75,0.75 c0.3-2.08,2.12-4.11,3.23-4.81C53.8,38.42,55.27,38.77,55.97,39.89z" fill="#ef9d26"/></g><g><path d="M47.97,62.14c3.81,2.3,7.99,1.57,10.34,0.84C50.94,70,45.63,80.29,43.74,92.15 c-1.69-0.73-2.96-1.8-3.71-3.27c-0.7-1.38-2.03-2.32-3.58-2.38c-5.5-0.24-16.81-1.22-15.42-5.33c1.4-4.17,11.48-7.09,16.03-8.21 c1.22-0.3,2.15-1.31,2.32-2.56c0.2-1.42,0.71-3.35,1.99-5C43.74,62.35,47.97,62.14,47.97,62.14z" fill="#115e98"/></g><g><path d="M53.42,52.63c0.02,0.41-0.03,0.8-0.14,1.18c-0.31,1.14-1.15,2.09-2.29,2.53 c-0.72,0.29-1.33,0.78-1.76,1.4c-0.28,0.4-0.48,0.85-0.59,1.34l-0.67,3.05c-0.41-0.24-0.81-0.52-1.21-0.84 c-2.3-1.84-3.01-5.05-3.02-8.31c-0.02-5.16,1.72-10.42,1.72-10.42s1.88,6.33,5.11,7.59c0.95,0.37,1.86,0.43,2.76,0.37 L53.42,52.63z" fill="#f9b132"/></g><g><path d="M47.97,62.13v0.01c0,0-4.23,0.21-6.6,3.26c-1.28,1.65-1.79,3.58-1.99,5 c-0.17,1.25-1.1,2.26-2.32,2.56c-4.55,1.12-14.63,4.04-16.03,8.21c-1.39,4.11,9.92,5.09,15.42,5.33c1.55,0.06,2.88,1,3.58,2.38 c0.75,1.47,2.02,2.54,3.71,3.27c-0.5,3.12-0.76,6.35-0.76,9.65H0V56.31c0,0,1.64,2.27,4.5,2.27c1.26,0,3-0.94,4.55-1.98 c2.02-1.36,4.66-1.26,6.65,0.15c1.73,1.22,4.18,2.35,7.31,2.35c4.17,0,7.63-2.8,9.68-4.96c1.36-1.45,3.34-2.11,5.29-1.77 c1.57,0.28,3.58,0.54,5.76,0.61c0.01,3.26,0.72,6.47,3.02,8.31C47.16,61.61,47.56,61.89,47.97,62.13z" fill="#fbe2ae"/></g></g><g><g><path d="M27.849,32.77c-0.168,0-0.339-0.042-0.496-0.132c-0.479-0.274-0.646-0.885-0.371-1.364 c1.356-2.37,1.396-5.519,0.101-8.024c-1.64-3.153-5.111-4.89-9.778-4.89c-0.012,0-0.025,0-0.034,0c-0.552,0-0.999-0.447-1-0.999 c-0.001-0.565,0.513-0.999,1.035-1.001c7.352,0,10.393,3.738,11.553,5.969c1.601,3.094,1.545,6.994-0.14,9.937 C28.533,32.589,28.195,32.77,27.849,32.77z" fill="#ef9d26"/></g></g></g></g></svg>